<svg xmlns="http://www.w3.org/2000/svg" width="23.6" height="23.6" viewBox="0 0 23.6 23.6">
  <g id="Group_3168" data-name="Group 3168" transform="translate(-837.2 46.689)">
    <path id="Path_4116" data-name="Path 4116" d="M839.775-36.027A2.578,2.578,0,0,1,837.2-38.6v-5.511a2.579,2.579,0,0,1,2.575-2.576h5.512a2.579,2.579,0,0,1,2.575,2.576V-38.6a2.578,2.578,0,0,1-2.575,2.575Zm0-9.187a1.1,1.1,0,0,0-1.1,1.1V-38.6a1.1,1.1,0,0,0,1.1,1.1h5.512a1.1,1.1,0,0,0,1.1-1.1v-5.511a1.1,1.1,0,0,0-1.1-1.1Z" fill="#3f3f40"/>
    <path id="Path_4117" data-name="Path 4117" d="M852.75-36.027a2.615,2.615,0,0,1-2.612-2.612v-5.437a2.616,2.616,0,0,1,2.612-2.613h5.437a2.616,2.616,0,0,1,2.613,2.613v5.437a2.615,2.615,0,0,1-2.613,2.612Zm0-9.187a1.139,1.139,0,0,0-1.138,1.138v5.437A1.139,1.139,0,0,0,852.75-37.5h5.437a1.139,1.139,0,0,0,1.138-1.138v-5.437a1.139,1.139,0,0,0-1.138-1.138Z" fill="#3f3f40"/>
    <path id="Path_4118" data-name="Path 4118" d="M839.775-23.089a2.578,2.578,0,0,1-2.575-2.575v-5.512a2.578,2.578,0,0,1,2.575-2.575h5.512a2.578,2.578,0,0,1,2.575,2.575v5.512a2.578,2.578,0,0,1-2.575,2.575Zm0-9.188a1.1,1.1,0,0,0-1.1,1.1v5.512a1.1,1.1,0,0,0,1.1,1.1h5.512a1.1,1.1,0,0,0,1.1-1.1v-5.512a1.1,1.1,0,0,0-1.1-1.1Z" fill="#3f3f40"/>
    <path id="Path_4119" data-name="Path 4119" d="M852.75-23.089a2.615,2.615,0,0,1-2.612-2.612v-5.438a2.615,2.615,0,0,1,2.612-2.612h5.437a2.616,2.616,0,0,1,2.613,2.612V-25.7a2.615,2.615,0,0,1-2.613,2.612Zm0-9.188a1.14,1.14,0,0,0-1.138,1.138V-25.7a1.139,1.139,0,0,0,1.138,1.137h5.437a1.139,1.139,0,0,0,1.138-1.137v-5.438a1.14,1.14,0,0,0-1.138-1.138Z" fill="#3f3f40"/>
  </g>
</svg>
