<svg xmlns="http://www.w3.org/2000/svg" width="27.426" height="24" viewBox="0 0 27.426 24">
  <path id="Path_4113" data-name="Path 4113" d="M59.319,42.574,56.051,39.9V35.758a.321.321,0,0,0-.321-.321H54.659a.321.321,0,0,0-.321.321v2.75l-7.49-6.114a1.723,1.723,0,0,0-2.163,0L32.212,42.574a.429.429,0,0,0-.062.6l.541.665a.429.429,0,0,0,.6.064l2.189-1.788V55.135a.857.857,0,0,0,.857.857h6.857a.857.857,0,0,0,.857-.857V48.278l3.429.016v6.862a.857.857,0,0,0,.857.857l6.857-.018a.857.857,0,0,0,.857-.857V42.117l2.189,1.788a.429.429,0,0,0,.6-.062l.541-.665a.429.429,0,0,0-.065-.6ZM54.331,54.285h.005l-5.143.016V47.434a.86.86,0,0,0-.854-.857L43.2,46.563a.857.857,0,0,0-.86.857v6.865H37.194V40.718l8.572-7,8.572,7Z" transform="translate(-32.054 -32.013)" fill="#3f3f40"/>
</svg>
