<svg xmlns="http://www.w3.org/2000/svg" width="24" height="24" viewBox="0 0 24 24">
  <path id="Path_4115" data-name="Path 4115" d="M12,1.5A5.25,5.25,0,1,1,6.75,6.75,5.253,5.253,0,0,1,12,1.5m6,15A4.507,4.507,0,0,1,22.5,21v1.5H1.5V21A4.507,4.507,0,0,1,6,16.5c3.984,0,3.155.75,6,.75s2.011-.75,6-.75M12,0a6.75,6.75,0,1,0,6.75,6.75A6.752,6.752,0,0,0,12,0Zm6,15c-4.331,0-3.328.75-6,.75S10.327,15,6,15a6,6,0,0,0-6,6v1.5A1.5,1.5,0,0,0,1.5,24h21A1.5,1.5,0,0,0,24,22.5V21A6,6,0,0,0,18,15Z" fill="#3f3f40"/>
</svg>
